# xmcd
# 
# Track frame offsets:
#     150
#     13098
#     33385
#     53320
#     73746
#     104082
#     127762
#     142656
#     154487
#     172859
#     198250
#     214408
#     228879
# 
# Disc length: 3267
# 
# Revision: 0
# Processed by: cddbd v1.5.2PL0 Copyright (c) Steve Scherf et al.
# Submitted via: BonkEnc v1.0.8
# 
DISCID=a90cc10d
DTITLE=M- - Le Tour de -M- CD1
DYEAR=2001
DGENRE=Rock
TTITLE0=Prélude
TTITLE1=Je Dis Aime
TTITLE2=Monde Virtuel
TTITLE3=Faut Oublier
TTITLE4=Souvenir Du Futur
TTITLE5=L'Amour Ma Thématique
TTITLE6=Le Mec Hamac
TTITLE7=La Fleur
TTITLE8=Onde Sensuelle
TTITLE9=Le Baptême
TTITLE10=Le Festival de Connes
TTITLE11=Au Suivant
TTITLE12=Le Blues De Soustons
EXTD=YEAR: 2001
EXTT0=
EXTT1=
EXTT2=
EXTT3=
EXTT4=
EXTT5=
EXTT6=
EXTT7=
EXTT8=
EXTT9=
EXTT10=
EXTT11=
EXTT12=
PLAYORDER=
